<svg width="70" height="70" viewBox="0 0 70 70" fill="none" xmlns="http://www.w3.org/2000/svg">
<path d="M43.7768 33.0997L36.9823 48.6301C36.162 50.5206 33.7833 50.4581 33.0314 48.5364L25.2525 28.8031L21.1512 40.0056H8.28671L33.2364 69.1446C34.2071 70.2851 35.7792 70.2851 36.7499 69.1446L61.7133 40.0056H46.7981L43.7768 33.0997ZM64.7619 6.55432L64.4338 6.16372C57.3932 -2.05457 45.8685 -2.05457 38.8142 6.16372L35 10.6322L31.1858 6.17934C24.1452 -2.05457 12.6068 -2.05457 5.56616 6.17934L5.23806 6.55432C-1.41976 14.3351 -1.70685 26.7251 4.24007 35.0059H18.2393L23.1472 21.5379C23.8854 19.5223 26.3735 19.4755 27.1665 21.4754L35.123 41.6774L41.8219 26.3813C42.6285 24.5377 44.9252 24.5377 45.7318 26.3813L49.505 35.0059H65.7599C71.7069 26.7251 71.4198 14.3351 64.7619 6.55432Z" fill="white"/>
</svg>
