<svg width="288" height="104" viewBox="0 0 288 104" fill="none" xmlns="http://www.w3.org/2000/svg">
<g clip-path="url(#clip0_2_12)">
<path d="M57.1924 75.976C54.6964 75.976 52.8404 75.24 51.6244 73.768C50.4084 72.296 49.8004 70.536 49.8004 68.488C49.8004 67.016 50.0244 65.544 50.4724 64.072C50.9204 62.6 51.3684 61.16 51.8164 59.752C52.2644 58.28 52.4884 56.968 52.4884 55.816C52.4884 54.728 52.2644 53.992 51.8164 53.608C51.4324 53.16 50.9204 52.936 50.2804 52.936C48.8084 52.936 47.0804 54.056 45.0964 56.296C43.1764 58.536 40.7764 61.8 37.8964 66.088C36.8724 67.624 35.9124 69.256 35.0164 70.984C34.1204 72.648 33.3204 74.056 32.6164 75.208C32.0404 75.208 31.2724 75.112 30.3124 74.92C29.4164 74.728 28.6164 74.44 27.9124 74.056C27.2084 73.736 26.8564 73.288 26.8564 72.712C26.8564 72.136 27.1764 71.016 27.8164 69.352C28.4564 67.688 29.1924 65.768 30.0244 63.592C30.8564 61.352 31.5924 59.176 32.2324 57.064C32.8724 54.888 33.1924 53.064 33.1924 51.592C33.1924 50.696 33.0324 49.992 32.7124 49.48C32.3924 48.968 31.8804 48.712 31.1764 48.712C29.8324 48.712 28.2004 49.512 26.2804 51.112C24.4244 52.712 22.4404 54.824 20.3284 57.448C18.2804 60.008 16.3284 62.888 14.4724 66.088C12.6804 69.224 11.2084 72.392 10.0564 75.592C9.35238 75.592 8.48838 75.432 7.46438 75.112C6.44037 74.856 5.54437 74.504 4.77637 74.056C4.00837 73.672 3.62437 73.32 3.62437 73C3.62437 72.936 3.84837 72.04 4.29637 70.312C4.74437 68.52 5.28837 66.312 5.92837 63.688C6.56837 61.064 7.24038 58.376 7.94438 55.624C8.64838 52.872 9.25638 50.472 9.76838 48.424C9.96038 47.72 10.6644 47.112 11.8804 46.6C13.0964 46.024 14.1524 45.736 15.0484 45.736C15.9444 45.736 16.7124 46.024 17.3524 46.6C17.9924 47.176 18.3124 47.944 18.3124 48.904C18.3124 49.544 18.1844 50.472 17.9284 51.688C17.6724 52.904 17.3524 54.28 16.9684 55.816C18.3124 54.024 19.7204 52.264 21.1924 50.536C22.7284 48.744 24.2964 47.144 25.8964 45.736C27.5604 44.328 29.1924 43.208 30.7924 42.376C32.4564 41.544 34.0884 41.128 35.6884 41.128C38.0564 41.128 39.6564 41.992 40.4884 43.72C41.3204 45.384 41.7364 47.208 41.7364 49.192C41.7364 50.024 41.6724 50.856 41.5444 51.688C41.4164 52.456 41.2244 53.256 40.9684 54.088C40.7764 54.856 40.4884 55.784 40.1044 56.872C41.3204 55.08 42.6324 53.448 44.0404 51.976C45.5124 50.44 47.0804 49.224 48.7444 48.328C50.4084 47.432 52.1684 46.984 54.0244 46.984C56.5204 46.984 58.2484 47.752 59.2084 49.288C60.1684 50.76 60.6484 52.392 60.6484 54.184C60.6484 55.848 60.3604 57.608 59.7844 59.464C59.2724 61.256 58.7284 62.984 58.1524 64.648C57.6404 66.248 57.3844 67.624 57.3844 68.776C57.3844 69.416 57.5444 70.024 57.8644 70.6C58.1844 71.112 58.8244 71.368 59.7844 71.368C61.5124 71.368 63.1764 70.568 64.7764 68.968C66.3764 67.368 67.8484 65.416 69.1924 63.112C70.6004 60.744 71.7844 58.504 72.7444 56.392L74.3764 58.408C73.3524 61.032 72.0084 63.72 70.3444 66.472C68.7444 69.16 66.8564 71.4 64.6804 73.192C62.5044 75.048 60.0084 75.976 57.1924 75.976ZM74.9674 99.88C73.3674 99.88 71.8634 99.368 70.4554 98.344C69.1114 97.384 68.4394 95.816 68.4394 93.64C68.4394 91.592 69.0474 89.736 70.2634 88.072C71.4794 86.472 73.0474 84.968 74.9674 83.56C76.8874 82.216 78.9354 80.968 81.1114 79.816C83.3514 78.728 85.4954 77.704 87.5434 76.744C88.2474 74.888 89.0154 72.552 89.8474 69.736C90.7434 66.856 91.5114 64.2 92.1514 61.768C90.1674 64.52 88.0554 66.952 85.8154 69.064C83.5754 71.176 81.0794 72.232 78.3274 72.232C77.1754 72.232 75.9594 72.008 74.6794 71.56C73.3994 71.048 72.3114 70.216 71.4154 69.064C70.5834 67.848 70.1674 66.248 70.1674 64.264C70.1674 62.6 70.4554 60.584 71.0314 58.216C71.6714 55.848 72.4394 53.544 73.3354 51.304C74.2954 49 75.2874 47.112 76.3114 45.64C77.3354 44.104 78.2314 43.336 78.9994 43.336C79.3834 43.336 79.9274 43.496 80.6314 43.816C81.3994 44.072 82.1354 44.456 82.8394 44.968C83.5434 45.416 83.9914 45.928 84.1834 46.504C83.6074 47.272 82.9674 48.392 82.2634 49.864C81.5594 51.272 80.8874 52.872 80.2474 54.664C79.6074 56.392 79.0634 58.088 78.6154 59.752C78.2314 61.416 78.0394 62.856 78.0394 64.072C78.0394 65.032 78.2314 65.864 78.6154 66.568C78.9994 67.272 79.7354 67.624 80.8234 67.624C82.2314 67.624 83.6714 67.048 85.1434 65.896C86.6794 64.744 88.1514 63.272 89.5594 61.48C91.0314 59.688 92.3434 57.864 93.4954 56.008C93.6234 55.56 93.7514 54.856 93.8794 53.896C94.0074 52.936 94.2314 51.944 94.5514 50.92C94.8714 49.832 95.4154 48.84 96.1834 47.944C97.0154 47.048 98.1674 46.6 99.6394 46.6C100.151 46.6 100.631 46.632 101.079 46.696C101.527 46.76 102.071 46.856 102.711 46.984C102.711 47.944 102.359 49.832 101.655 52.648C101.015 55.4 100.151 58.6 99.0634 62.248C97.9754 65.896 96.7594 69.544 95.4154 73.192C98.1034 72.104 100.887 70.312 103.767 67.816C106.711 65.256 109.079 61.64 110.871 56.968L112.503 58.312C111.543 61.512 110.071 64.296 108.087 66.664C106.167 69.032 103.991 71.048 101.559 72.712C99.1274 74.376 96.6634 75.752 94.1674 76.84C92.4394 81 90.5514 84.84 88.5034 88.36C86.5194 91.88 84.4074 94.664 82.1674 96.712C79.9274 98.824 77.5274 99.88 74.9674 99.88ZM74.0074 96.328C75.2234 96.328 76.9194 95.048 79.0954 92.488C81.2714 89.928 83.4794 86.088 85.7194 80.968C83.6714 81.992 81.5914 83.176 79.4794 84.52C77.4314 85.928 75.7034 87.4 74.2954 88.936C72.8874 90.472 72.1834 92.04 72.1834 93.64C72.1834 94.28 72.3114 94.888 72.5674 95.464C72.8874 96.04 73.3674 96.328 74.0074 96.328ZM132.797 81.352C127.933 81.352 123.933 80.2 120.797 77.896C117.725 75.592 115.453 72.616 113.981 68.968C112.573 65.32 111.869 61.544 111.869 57.64C111.869 52.584 112.637 47.528 114.173 42.472C115.709 37.352 117.821 32.488 120.509 27.88C123.261 23.272 126.365 19.176 129.821 15.592C133.277 12.008 136.957 9.192 140.861 7.144C144.829 5.032 148.765 3.976 152.669 3.976C155.485 3.976 157.853 4.648 159.773 5.992C161.693 7.272 162.653 9.512 162.653 12.712C162.653 14.632 162.301 16.776 161.597 19.144C160.957 21.512 160.061 23.816 158.909 26.056C157.821 28.232 156.573 30.024 155.165 31.432C153.757 32.84 152.317 33.544 150.845 33.544C150.205 33.544 149.533 33.32 148.829 32.872C148.125 32.424 147.485 31.656 146.909 30.568C147.869 29.48 148.957 28.168 150.173 26.632C151.389 25.032 152.541 23.368 153.629 21.64C154.717 19.848 155.613 18.12 156.317 16.456C157.021 14.728 157.373 13.224 157.373 11.944C157.373 10.792 157.053 9.896 156.413 9.256C155.773 8.552 154.653 8.2 153.053 8.2C150.237 8.2 147.325 9.256 144.317 11.368C141.373 13.48 138.525 16.328 135.773 19.912C133.021 23.432 130.525 27.4 128.285 31.816C126.109 36.168 124.381 40.68 123.101 45.352C121.821 49.96 121.181 54.344 121.181 58.504C121.181 61.576 121.629 64.52 122.525 67.336C123.485 70.088 124.989 72.328 127.037 74.056C129.085 75.848 131.773 76.744 135.101 76.744C138.557 76.744 141.981 75.784 145.373 73.864C148.829 71.944 151.965 69.416 154.781 66.28C157.661 63.144 159.965 59.784 161.693 56.2L164.189 57.832C161.949 62.12 159.261 66.056 156.125 69.64C152.989 73.16 149.437 75.976 145.469 78.088C141.565 80.264 137.341 81.352 132.797 81.352ZM231.182 75.496C228.814 75.496 226.894 74.856 225.422 73.576C223.95 72.36 223.214 70.696 223.214 68.584C223.214 66.792 223.662 64.872 224.558 62.824C225.454 60.776 226.35 58.76 227.246 56.776C228.206 54.792 228.686 53.032 228.686 51.496C228.686 50.024 228.206 48.808 227.246 47.848C226.286 46.824 225.166 45.992 223.886 45.352C222.478 48.872 220.878 52.296 219.086 55.624C217.358 58.888 215.95 61.448 214.862 63.304L213.422 60.52C214.318 58.856 215.502 56.488 216.974 53.416C218.446 50.344 219.854 46.92 221.198 43.144C220.558 42.504 220.238 41.64 220.238 40.552C220.238 38.888 220.75 37.32 221.774 35.848C222.798 34.376 223.79 33.64 224.75 33.64C225.518 33.64 226.062 34.088 226.382 34.984C226.766 35.816 226.958 36.392 226.958 36.712C226.958 37.032 226.798 37.608 226.478 38.44C226.222 39.272 226.03 39.88 225.902 40.264C225.966 40.968 226.51 41.672 227.534 42.376C228.622 43.016 229.838 43.784 231.182 44.68C232.526 45.576 233.71 46.696 234.734 48.04C235.758 49.384 236.27 51.08 236.27 53.128C236.27 54.984 235.854 56.872 235.022 58.792C234.19 60.712 233.358 62.504 232.526 64.168C231.694 65.832 231.278 67.272 231.278 68.488C231.278 69.384 231.502 69.992 231.95 70.312C232.462 70.568 233.038 70.696 233.678 70.696C235.214 70.696 236.814 70.248 238.478 69.352C240.142 68.392 241.774 67.176 243.374 65.704C244.974 64.232 246.382 62.696 247.598 61.096C248.814 59.432 249.742 57.928 250.382 56.584L252.686 58.312C251.47 61.064 249.71 63.784 247.406 66.472C245.102 69.096 242.542 71.272 239.726 73C236.91 74.664 234.062 75.496 231.182 75.496ZM259.433 77.224C255.337 77.224 252.169 76.104 249.929 73.864C247.753 71.688 246.665 68.936 246.665 65.608C246.665 62.792 247.369 59.816 248.777 56.68C250.249 53.48 252.201 50.504 254.633 47.752C257.065 44.936 259.753 42.664 262.697 40.936C265.641 39.208 268.585 38.344 271.529 38.344C273.193 38.344 274.761 38.792 276.233 39.688C277.769 40.52 278.537 42.216 278.537 44.776C278.537 47.208 277.833 49.48 276.425 51.592C275.017 53.704 273.129 55.592 270.761 57.256C268.393 58.92 265.769 60.296 262.889 61.384C260.073 62.408 257.225 63.08 254.345 63.4C254.281 63.656 254.217 63.944 254.153 64.264C254.153 64.52 254.153 64.968 254.153 65.608C254.153 65.928 254.185 66.504 254.249 67.336C254.377 68.104 254.665 68.936 255.113 69.832C255.561 70.728 256.297 71.496 257.321 72.136C258.345 72.776 259.753 73.096 261.545 73.096C264.233 73.096 266.921 72.36 269.609 70.888C272.361 69.352 274.921 67.336 277.289 64.84C279.721 62.344 281.737 59.56 283.337 56.488L285.257 58.024C283.529 61.864 281.289 65.224 278.537 68.104C275.849 70.984 272.841 73.224 269.513 74.824C266.249 76.424 262.889 77.224 259.433 77.224ZM255.401 59.848C257.065 59.656 258.921 59.08 260.969 58.12C263.017 57.16 264.969 55.944 266.825 54.472C268.745 53 270.313 51.4 271.529 49.672C272.745 47.88 273.353 46.088 273.353 44.296C273.353 43.592 273.225 43.112 272.969 42.856C272.713 42.6 272.297 42.472 271.721 42.472C270.249 42.472 268.713 43.016 267.113 44.104C265.513 45.128 263.945 46.504 262.409 48.232C260.873 49.896 259.497 51.752 258.281 53.8C257.065 55.848 256.105 57.864 255.401 59.848Z" fill="white"/>
<path d="M194.523 57.3712L188.699 70.6829C187.996 72.3034 185.957 72.2498 185.313 70.6026L178.645 53.6884L175.13 63.2905H164.103L185.488 88.2668C186.32 89.2444 187.668 89.2444 188.5 88.2668L209.897 63.2905H197.113L194.523 57.3712ZM212.51 34.618L212.229 34.2832C206.194 27.2389 196.316 27.2389 190.269 34.2832L187 38.1133L183.731 34.2966C177.696 27.2389 167.806 27.2389 161.771 34.2966L161.49 34.618C155.783 41.2873 155.537 51.9072 160.634 59.005H172.634L176.84 47.461C177.473 45.7334 179.606 45.6933 180.286 47.4075L187.105 64.7235L192.847 51.6126C193.539 50.0323 195.507 50.0323 196.199 51.6126L199.433 59.005H213.366C218.463 51.9072 218.217 41.2873 212.51 34.618Z" fill="white"/>
</g>
<defs>
<clipPath id="clip0_2_12">
<rect width="288" height="104" fill="white"/>
</clipPath>
</defs>
</svg>
